<svg width="55" height="56" viewBox="0 0 55 56" fill="none" xmlns="http://www.w3.org/2000/svg">
<defs>
    <linearGradient id="logo-gradient" x1="0" y1="0" x2="1" y2="1">
        <stop offset="0%" stop-color="#A8E063"/>
        <stop offset="100%" stop-color="#56AB2F"/>
    </linearGradient>
</defs>
<path d="M13.5938 13.9375C19.7891 13.9375 24.7812 18.9297 24.7812 25.125C24.7812 31.3203 19.7891 36.3125 13.5938 36.3125C7.39844 36.3125 2.40625 31.3203 2.40625 25.125C2.40625 18.9297 7.39844 13.9375 13.5938 13.9375Z" fill="url(#logo-gradient)"/>
<path d="M52.0234 4.54688C54.4922 7.01562 54.4922 10.9531 52.0234 13.4219L19.4609 45.9844C16.9922 48.4531 13.0547 48.4531 10.5859 45.9844L3.10938 38.5078C0.640625 36.0391 0.640625 32.1016 3.10938 29.6328L35.6719 7.07031C38.1406 4.60156 42.0781 4.60156 44.5469 7.07031L52.0234 4.54688Z" fill="url(#logo-gradient)"/>
</svg>
