<svg width="604" height="106" viewBox="0 0 604 106" fill="none" xmlns="http://www.w3.org/2000/svg">
<path d="M51.3533 53.0039C51.3533 76.2415 41.5435 95.143 25.6766 95.143C9.80975 95.143 0 76.2415 0 53.0039C0 30.0135 9.80975 10.8647 25.6766 10.8647C41.5435 10.8647 51.3533 30.0135 51.3533 53.0039ZM13.0649 53.0039C13.0649 67.574 17.5195 78.9326 25.6766 78.9326C33.8338 78.9326 38.2883 67.574 38.2883 53.0039C38.2883 38.4338 33.8338 27.0752 25.6766 27.0752C17.5195 27.0752 13.0649 38.4338 13.0649 53.0039Z" fill="white"/>
<path d="M63.6429 11.6025H76.7078V94.4053H63.6429V11.6025Z" fill="white"/>
<path d
="M112.599 11.6025H125.664V38.1866H136.948V11.6025H150.013V94.4053H136.948V54.2405H125.664V94.4053H112.599V11.6025Z" fill="white"/>
<path d="M208.649 11.6025H221.714V94.4053H208.649V11.6025Z" fill="white"/>
<path d="M233.991 11.6025H249.344L262.656 59.9576L275.969 11.6025H291.322L271.013 72.8465V94.4053H254.298V72.8465L233.991 11.6025Z" fill="white"/>
<path d="M303.883 11.6025H316.948V82.0391H338.288V94.4053H303.883V11.6025Z" fill="white"/>
<path d="M350.576 11.6025H391.569V23.9687H363.641V46.9592H387.958V59.3254H363.641V82.0391H392.599V94.4053H350.576V11.6025Z" fill="white"/>
<path d="M404.167 11.6025H417.232V94.4053H404.167V11.6025Z" fill="white"/>
<path d="M428.815 11.6025H444.167L457.48 59.9576L470.792 11.6025H486.145L465.836 72.8465V94.4053H449.121V72.8465L428.815 11.6025Z" fill="white"/>
<path d="M542.493 11.6025H555.558V94.4053H542.493V11.6025Z" fill="white"/>
<path d="M567.834 11.6025H580.899V82.0391H602.239V94.4053H567.834V11.6025Z" fill="white"/>
<path d="M162.883 53.0039C162.883 76.2415 153.073 95.143 137.206 95.143C121.34 95.143 111.53 76.2415 111.53 53.0039C111.53 30.0135 121.34 10.8647 137.206 10.8647C153.073 10.8647 162.883 30.0135 162.883 53.0039ZM124.595 53.0039C124.595 67.574 129.05 78.9326 137.206 78.9326C145.363 78.9326 149.818 67.574 149.818 53.0039C149.818 38.4338 145.363 27.0752 137.206 27.0752C129.05 27.0752 124.595 38.4338 124.595 53.0039Z" fill="white"/>
<path d="M219.999 53.0039C219.999 76.2415 210.189 95.143 194.322 95.143C178.455 95.143 168.646 76.2415 168.646 53.0039C168.646 30.0135 178.455 10.8647 194.322 10.8647C210.189 10.8647 219.999 30.0135 219.999 53.0039ZM181.71 53.0039C181.71 67.574 186.165 78.9326 194.322 78.9326C202.479 78.9326 206.934 67.574 206.934 53.0039C206.934 38.4338 202.479 27.0752 194.322 27.0752C186.165 27.0752 181.71 38.4338 181.71 53.0039Z" fill="white"/>
<path d="M301.999 53.0039C301.999 76.2415 292.189 95.143 276.322 95.143C260.455 95.143 250.646 76.2415 250.646 53.0039C250.646 30.0135 260.455 10.8647 276.322 10.8647C292.189 10.8647 301.999 30.0135 301.999 53.0039ZM263.71 53.0039C263.71 67.574 268.165 78.9326 276.322 78.9326C284.479 78.9326 288.934 67.574 288.934 53.0039C288.934 38.4338 284.479 27.0752 276.322 27.0752C268.165 27.0752 263.71 38.4338 263.71 53.0039Z" fill="white"/>
<path d="M348.707 53.0039C348.707 76.2415 338.897 95.143 323.03 95.143C307.163 95.143 297.354 76.2415 297.354 53.0039C297.354 30.0135 307.163 10.8647 323.03 10.8647C338.897 10.8647 348.707 30.0135 348.707 53.0039ZM310.418 53.0039C310.418 67.574 314.873 78.9326 323.03 78.9326C331.187 78.9326 335.642 67.574 335.642 53.0039C335.642 38.4338 331.187 27.0752 323.03 27.0752C314.873 27.0752 310.418 38.4338 310.418 53.0039Z" fill="white"/>
<path d="M402.285 53.0039C402.285 76.2415 392.475 95.143 376.608 95.143C360.742 95.143 350.932 76.2415 350.932 53.0039C350.932 30.0135 360.742 10.8647 376.608 10.8647C392.475 10.8647 402.285 30.0135 402.285 53.0039ZM363.997 53.0039C363.997 67.574 368.451 78.9326 376.608 78.9326C384.765 78.9326 389.22 67.574 389.22 53.0039C389.22 38.4338 384.765 27.0752 376.608 27.0752C368.451 27.0752 363.997 38.4338 363.997 53.0039Z" fill="white"/>
<path d="M455.608 53.0039C455.608 76.2415 445.798 95.143 429.932 95.143C414.065 95.143 404.255 76.2415 404.255 53.0039C404.255 30.0135 414.065 10.8647 429.932 10.8647C445.798 10.8647 455.608 30.0135 455.608 53.0039ZM417.32 53.0039C417.32 67.574 421.774 78.9326 429.932 78.9326C438.089 78.9326 442.543 67.574 442.543 53.0039C442.543 38.4338 438.089 27.0752 429.932 27.0752C421.774 27.0752 417.32 38.4338 417.32 53.0039Z" fill="white"/>
<path d="M508.932 53.0039C508.932 76.2415 499.122 95.143 483.255 95.143C467.388 B
95.143 457.579 76.2415 457.579 53.0039C457.579 30.0135 467.388 10.8647 483.255 10.8647C499.122 10.8647 508.932 30.0135 508.932 53.0039ZM470.643 53.0039C470.643 67.574 475.098 78.9326 483.255 78.9326C491.412 78.9326 495.867 67.574 495.867 53.0039C495.867 38.4338 491.412 27.0752 483.255 27.0752C475.098 27.0752 470.643 38.4338 470.643 53.0039Z" fill="white"/>
<path d="M566.932 53.0039C566.932 76.2415 557.122 95.143 541.255 95.143C525.388 95.143 515.579 76.2415 515.579 53.0039C515.579 30.0135 525.388 10.8647 541.255 10.8647C557.122 10.8647 566.932 30.0135 566.932 53.0039ZM528.643 53.0039C528.643 67.574 533.098 78.9326 541.255 78.9326C549.412 78.9326 553.867 67.574 553.867 53.0039C553.867 38.4338 549.412 27.0752 541.255 27.0752C533.098 27.0752 528.643 38.4338 528.643 53.0039Z" fill="white"/>
<path d="M89.7078 23.9687H102.773V94.4053H89.7078V23.9687Z" fill="white"/>
<path d="M89.7078 11.6025H102.773V23.9687H89.7078V11.6025Z" fill="white"/>
</svg>
